<?xml version="1.0" encoding="UTF-8"?>
<svg width="295px" height="282px" viewBox="0 0 295 282" version="1.1" xmlns="http://www.w3.org/2000/svg" xmlns:xlink="http://www.w3.org/1999/xlink">
    <title>top</title>
    <defs>
        <linearGradient x1="30.993838%" y1="0%" x2="69.006162%" y2="100%" id="linearGradient-1">
            <stop stop-color="#4EB9FB" offset="0%"></stop>
            <stop stop-color="#2683F5" offset="100%"></stop>
        </linearGradient>
        <linearGradient x1="79.8583349%" y1="52.4918236%" x2="23.5716011%" y2="62.6047667%" id="linearGradient-2">
            <stop stop-color="#1382C6" offset="0%"></stop>
            <stop stop-color="#0352C2" offset="100%"></stop>
        </linearGradient>
        <linearGradient x1="30.993838%" y1="0%" x2="69.006162%" y2="100%" id="linearGradient-3">
            <stop stop-color="#4EB9FB" offset="0%"></stop>
            <stop stop-color="#2683F5" offset="100%"></stop>
        </linearGradient>
    </defs>
    <g id="Page-1" stroke="none" stroke-width="1" fill="none" fill-rule="evenodd">
        <g id="terratest-support--contact" transform="translate(-291.000000, 34.000000)">
            <g id="top" transform="translate(291.000000, -34.000000)">
                <g id="Group-Copy" transform="translate(0.000000, 169.000000)">
                    <polygon id="Rectangle" fill="url(#linearGradient-1)" points="51 63.2903226 100.2 32.4 100.2 81.3096774 51 112.2"></polygon>
                    <polygon id="Rectangle-Copy-15" fill="#0136AD" transform="translate(24.600000, 72.300000) scale(-1, 1) translate(-24.600000, -72.300000) " points="-9.23705556e-14 63.2903226 49.2 32.4 49.2 81.3096774 -9.23705556e-14 112.2"></polygon>
                    <polygon id="Rectangle-Copy-3" fill="url(#linearGradient-2)" transform="translate(50.100000, 30.900000) scale(-1, 1) translate(-50.100000, -30.900000) " points="1.2 30.9 50.1 0 99 30.9 50.1 61.8"></polygon>
                </g>
                <g id="Group-Copy-4" transform="translate(243.000000, 218.000000)">
                    <polygon id="Rectangle" fill="url(#linearGradient-3)" points="26.5 32.6451613 51.1 17.2 51.1 41.6548387 26.5 57.1"></polygon>
                    <polygon id="Rectangle-Copy-15" fill="#012FA8" transform="translate(12.300000, 37.150000) scale(-1, 1) translate(-12.300000, -37.150000) " points="0 32.6451613 24.6 17.2 24.6 41.6548387 0 57.1"></polygon>
                    <polygon id="Rectangle-Copy-3" fill="#067ACB" transform="translate(25.650000, 15.450000) scale(-1, 1) translate(-25.650000, -15.450000) " points="1.2 15.45 25.65 0 50.1 15.45 25.65 30.9"></polygon>
                </g>
                <g id="Group" transform="translate(194.000000, 0.000000)">
                    <polygon id="Rectangle" fill="url(#linearGradient-1)" points="51 63.2903226 100.2 32.4 100.2 81.3096774 51 112.2"></polygon>
                    <polygon id="Rectangle-Copy-15" fill="#00229E" transform="translate(24.600000, 72.300000) scale(-1, 1) translate(-24.600000, -72.300000) " points="-9.23705556e-14 63.2903226 49.2 32.4 49.2 81.3096774 -9.23705556e-14 112.2"></polygon>
                    <polygon id="Rectangle-Copy-3" fill="#0352C2" transform="translate(50.100000, 30.900000) scale(-1, 1) translate(-50.100000, -30.900000) " points="1.2 30.9 50.1 9.23705556e-14 99 30.9 50.1 61.8"></polygon>
                </g>
            </g>
        </g>
    </g>
</svg>